<svg aria-roledescription="er" role="graphics-document document" viewBox="0 0 583.1644287109375 856" style="max-width: 100%;" xmlns="http://www.w3.org/2000/svg" width="100%" id="graph-div" height="100%" xmlns:xlink="http://www.w3.org/1999/xlink"><style>@import url("https://cdnjs.cloudflare.com/ajax/libs/font-awesome/6.4.2/css/all.min.css");'</style><style>#graph-div{font-family:"trebuchet ms",verdana,arial,sans-serif;font-size:16px;fill:#ccc;}#graph-div .error-icon{fill:#a44141;}#graph-div .error-text{fill:#ddd;stroke:#ddd;}#graph-div .edge-thickness-normal{stroke-width:2px;}#graph-div .edge-thickness-thick{stroke-width:3.5px;}#graph-div .edge-pattern-solid{stroke-dasharray:0;}#graph-div .edge-pattern-dashed{stroke-dasharray:3;}#graph-div .edge-pattern-dotted{stroke-dasharray:2;}#graph-div .marker{fill:lightgrey;stroke:lightgrey;}#graph-div .marker.cross{stroke:lightgrey;}#graph-div svg{font-family:"trebuchet ms",verdana,arial,sans-serif;font-size:16px;}#graph-div .entityBox{fill:#1f2020;stroke:#81B1DB;}#graph-div .attributeBoxOdd{fill:hsl(0, 0%, 32%);stroke:#81B1DB;}#graph-div .attributeBoxEven{fill:hsl(0, 0%, 22%);stroke:#81B1DB;}#graph-div .relationshipLabelBox{fill:hsl(20, 1.5873015873%, 12.3529411765%);opacity:0.7;background-color:hsl(20, 1.5873015873%, 12.3529411765%);}#graph-div .relationshipLabelBox rect{opacity:0.5;}#graph-div .relationshipLine{stroke:lightgrey;}#graph-div .entityTitleText{text-anchor:middle;font-size:18px;fill:#ccc;}#graph-div #MD_PARENT_START{fill:#f5f5f5!important;stroke:lightgrey!important;stroke-width:1;}#graph-div #MD_PARENT_END{fill:#f5f5f5!important;stroke:lightgrey!important;stroke-width:1;}#graph-div :root{--mermaid-font-family:"trebuchet ms",verdana,arial,sans-serif;}</style><g></g><defs><marker orient="auto" markerHeight="240" markerWidth="190" refY="7" refX="0" id="MD_PARENT_START"><path d="M 18,7 L9,13 L1,7 L9,1 Z"></path></marker></defs><defs><marker orient="auto" markerHeight="28" markerWidth="20" refY="7" refX="19" id="MD_PARENT_END"><path d="M 18,7 L9,13 L1,7 L9,1 Z"></path></marker></defs><defs><marker orient="auto" markerHeight="18" markerWidth="18" refY="9" refX="0" id="ONLY_ONE_START"><path d="M9,0 L9,18 M15,0 L15,18" fill="none" stroke="gray"></path></marker></defs><defs><marker orient="auto" markerHeight="18" markerWidth="18" refY="9" refX="18" id="ONLY_ONE_END"><path d="M3,0 L3,18 M9,0 L9,18" fill="none" stroke="gray"></path></marker></defs><defs><marker orient="auto" markerHeight="18" markerWidth="30" refY="9" refX="0" id="ZERO_OR_ONE_START"><circle r="6" cy="9" cx="21" fill="white" stroke="gray"></circle><path d="M9,0 L9,18" fill="none" stroke="gray"></path></marker></defs><defs><marker orient="auto" markerHeight="18" markerWidth="30" refY="9" refX="30" id="ZERO_OR_ONE_END"><circle r="6" cy="9" cx="9" fill="white" stroke="gray"></circle><path d="M21,0 L21,18" fill="none" stroke="gray"></path></marker></defs><defs><marker orient="auto" markerHeight="36" markerWidth="45" refY="18" refX="18" id="ONE_OR_MORE_START"><path d="M0,18 Q 18,0 36,18 Q 18,36 0,18 M42,9 L42,27" fill="none" stroke="gray"></path></marker></defs><defs><marker orient="auto" markerHeight="36" markerWidth="45" refY="18" refX="27" id="ONE_OR_MORE_END"><path d="M3,9 L3,27 M9,18 Q27,0 45,18 Q27,36 9,18" fill="none" stroke="gray"></path></marker></defs><defs><marker orient="auto" markerHeight="36" markerWidth="57" refY="18" refX="18" id="ZERO_OR_MORE_START"><circle r="6" cy="18" cx="48" fill="white" stroke="gray"></circle><path d="M0,18 Q18,0 36,18 Q18,36 0,18" fill="none" stroke="gray"></path></marker></defs><defs><marker orient="auto" markerHeight="36" markerWidth="57" refY="18" refX="39" id="ZERO_OR_MORE_END"><circle r="6" cy="18" cx="9" fill="white" stroke="gray"></circle><path d="M21,18 Q39,0 57,18 Q39,36 21,18" fill="none" stroke="gray"></path></marker></defs><path style="stroke: gray; fill: none;" marker-start="url(#ONE_OR_MORE_START)" marker-end="url(#ONLY_ONE_END)" d="M234.911,407.049L209.14,428.041C183.369,449.033,131.828,491.016,106.057,520.342C80.286,549.667,80.286,566.333,80.286,574.667L80.286,583" class="er relationshipLine"></path><path style="stroke: gray; fill: none;" marker-start="url(#ONLY_ONE_START)" marker-end="url(#ONLY_ONE_END)" d="M298.196,483L298.196,491.333C298.196,499.667,298.196,516.333,298.196,534.75C298.196,553.167,298.196,573.333,298.196,583.417L298.196,593.5" class="er relationshipLine"></path><path style="stroke: gray; fill: none;" marker-start="url(#ONLY_ONE_START)" marker-end="url(#ONLY_ONE_END)" d="M298.196,128L298.196,136.333C298.196,144.667,298.196,161.333,298.196,178C298.196,194.667,298.196,211.333,298.196,219.667L298.196,228" class="er relationshipLine"></path><path style="stroke: gray; fill: none;" marker-start="url(#ONE_OR_MORE_START)" marker-end="url(#ONLY_ONE_END)" d="M361.481,408.663L386.15,429.386C410.818,450.109,460.156,491.554,484.824,520.61C509.493,549.667,509.493,566.333,509.493,574.667L509.493,583" class="er relationshipLine"></path><path style="stroke: gray; fill: none;" marker-start="url(#ONE_OR_MORE_START)" marker-end="url(#ONE_OR_MORE_END)" d="M509.493,670L509.493,678.333C509.493,686.667,509.493,703.333,509.493,720C509.493,736.667,509.493,753.333,509.493,761.667L509.493,770" class="er relationshipLine"></path><g transform="translate(234.91122436523438,228 )" id="entity-PROTEINA-a6b4aa36-4bd1-5d4c-aab0-7168513002aa"><rect height="255" width="126.57025146484375" y="0" x="0" class="er entityBox"></rect><text transform="translate(63.285125732421875,12)" style="dominant-baseline: middle; text-anchor: middle; font-size: 12px;" y="0" x="0" id="text-entity-PROTEINA-a6b4aa36-4bd1-5d4c-aab0-7168513002aa" class="er entityLabel">PROTEINA</text><rect height="21" width="35.245819091796875" y="24" x="0" class="er attributeBoxOdd"></rect><text transform="translate(5,34.5)" style="dominant-baseline: middle; font-size: 10.2px;" y="0" x="0" id="text-entity-PROTEINA-a6b4aa36-4bd1-5d4c-aab0-7168513002aa-attr-1-type" class="er entityLabel">string</text><rect height="21" width="67.52944946289062" y="24" x="35.245819091796875" class="er attributeBoxOdd"></rect><text transform="translate(40.245819091796875,34.5)" style="dominant-baseline: middle; font-size: 10.2px;" y="0" x="0" id="text-entity-PROTEINA-a6b4aa36-4bd1-5d4c-aab0-7168513002aa-attr-1-name" class="er entityLabel">idProteina</text><rect height="21" width="23.79498291015625" y="24" x="102.7752685546875" class="er attributeBoxOdd"></rect><text transform="translate(107.7752685546875,34.5)" style="dominant-baseline: middle; font-size: 10.2px;" y="0" x="0" id="text-entity-PROTEINA-a6b4aa36-4bd1-5d4c-aab0-7168513002aa-attr-1-key" class="er entityLabel">PK</text><rect height="21" width="35.245819091796875" y="45" x="0" class="er attributeBoxEven"></rect><text transform="translate(5,55.5)" style="dominant-baseline: middle; font-size: 10.2px;" y="0" x="0" id="text-entity-PROTEINA-a6b4aa36-4bd1-5d4c-aab0-7168513002aa-attr-2-type" class="er entityLabel">string</text><rect height="21" width="67.52944946289062" y="45" x="35.245819091796875" class="er attributeBoxEven"></rect><text transform="translate(40.245819091796875,55.5)" style="dominant-baseline: middle; font-size: 10.2px;" y="0" x="0" id="text-entity-PROTEINA-a6b4aa36-4bd1-5d4c-aab0-7168513002aa-attr-2-name" class="er entityLabel">UniProt</text><rect height="21" width="23.79498291015625" y="45" x="102.7752685546875" class="er attributeBoxEven"></rect><text transform="translate(107.7752685546875,55.5)" style="dominant-baseline: middle; font-size: 10.2px;" y="0" x="0" id="text-entity-PROTEINA-a6b4aa36-4bd1-5d4c-aab0-7168513002aa-attr-2-key" class="er entityLabel"></text><rect height="21" width="35.245819091796875" y="66" x="0" class="er attributeBoxOdd"></rect><text transform="translate(5,76.5)" style="dominant-baseline: middle; font-size: 10.2px;" y="0" x="0" id="text-entity-PROTEINA-a6b4aa36-4bd1-5d4c-aab0-7168513002aa-attr-3-type" class="er entityLabel">string</text><rect height="21" width="67.52944946289062" y="66" x="35.245819091796875" class="er attributeBoxOdd"></rect><text transform="translate(40.245819091796875,76.5)" style="dominant-baseline: middle; font-size: 10.2px;" y="0" x="0" id="text-entity-PROTEINA-a6b4aa36-4bd1-5d4c-aab0-7168513002aa-attr-3-name" class="er entityLabel">nombre</text><rect height="21" width="23.79498291015625" y="66" x="102.7752685546875" class="er attributeBoxOdd"></rect><text transform="translate(107.7752685546875,76.5)" style="dominant-baseline: middle; font-size: 10.2px;" y="0" x="0" id="text-entity-PROTEINA-a6b4aa36-4bd1-5d4c-aab0-7168513002aa-attr-3-key" class="er entityLabel"></text><rect height="21" width="35.245819091796875" y="87" x="0" class="er attributeBoxEven"></rect><text transform="translate(5,97.5)" style="dominant-baseline: middle; font-size: 10.2px;" y="0" x="0" id="text-entity-PROTEINA-a6b4aa36-4bd1-5d4c-aab0-7168513002aa-attr-4-type" class="er entityLabel">string</text><rect height="21" width="67.52944946289062" y="87" x="35.245819091796875" class="er attributeBoxEven"></rect><text transform="translate(40.245819091796875,97.5)" style="dominant-baseline: middle; font-size: 10.2px;" y="0" x="0" id="text-entity-PROTEINA-a6b4aa36-4bd1-5d4c-aab0-7168513002aa-attr-4-name" class="er entityLabel">descripcion</text><rect height="21" width="23.79498291015625" y="87" x="102.7752685546875" class="er attributeBoxEven"></rect><text transform="translate(107.7752685546875,97.5)" style="dominant-baseline: middle; font-size: 10.2px;" y="0" x="0" id="text-entity-PROTEINA-a6b4aa36-4bd1-5d4c-aab0-7168513002aa-attr-4-key" class="er entityLabel"></text><rect height="21" width="35.245819091796875" y="108" x="0" class="er attributeBoxOdd"></rect><text transform="translate(5,118.5)" style="dominant-baseline: middle; font-size: 10.2px;" y="0" x="0" id="text-entity-PROTEINA-a6b4aa36-4bd1-5d4c-aab0-7168513002aa-attr-5-type" class="er entityLabel">string</text><rect height="21" width="67.52944946289062" y="108" x="35.245819091796875" class="er attributeBoxOdd"></rect><text transform="translate(40.245819091796875,118.5)" style="dominant-baseline: middle; font-size: 10.2px;" y="0" x="0" id="text-entity-PROTEINA-a6b4aa36-4bd1-5d4c-aab0-7168513002aa-attr-5-name" class="er entityLabel">idEspecie</text><rect height="21" width="23.79498291015625" y="108" x="102.7752685546875" class="er attributeBoxOdd"></rect><text transform="translate(107.7752685546875,118.5)" style="dominant-baseline: middle; font-size: 10.2px;" y="0" x="0" id="text-entity-PROTEINA-a6b4aa36-4bd1-5d4c-aab0-7168513002aa-attr-5-key" class="er entityLabel">FK</text><rect height="21" width="35.245819091796875" y="129" x="0" class="er attributeBoxEven"></rect><text transform="translate(5,139.5)" style="dominant-baseline: middle; font-size: 10.2px;" y="0" x="0" id="text-entity-PROTEINA-a6b4aa36-4bd1-5d4c-aab0-7168513002aa-attr-6-type" class="er entityLabel">int</text><rect height="21" width="67.52944946289062" y="129" x="35.245819091796875" class="er attributeBoxEven"></rect><text transform="translate(40.245819091796875,139.5)" style="dominant-baseline: middle; font-size: 10.2px;" y="0" x="0" id="text-entity-PROTEINA-a6b4aa36-4bd1-5d4c-aab0-7168513002aa-attr-6-name" class="er entityLabel">dominios</text><rect height="21" width="23.79498291015625" y="129" x="102.7752685546875" class="er attributeBoxEven"></rect><text transform="translate(107.7752685546875,139.5)" style="dominant-baseline: middle; font-size: 10.2px;" y="0" x="0" id="text-entity-PROTEINA-a6b4aa36-4bd1-5d4c-aab0-7168513002aa-attr-6-key" class="er entityLabel"></text><rect height="21" width="35.245819091796875" y="150" x="0" class="er attributeBoxOdd"></rect><text transform="translate(5,160.5)" style="dominant-baseline: middle; font-size: 10.2px;" y="0" x="0" id="text-entity-PROTEINA-a6b4aa36-4bd1-5d4c-aab0-7168513002aa-attr-7-type" class="er entityLabel">float</text><rect height="21" width="67.52944946289062" y="150" x="35.245819091796875" class="er attributeBoxOdd"></rect><text transform="translate(40.245819091796875,160.5)" style="dominant-baseline: middle; font-size: 10.2px;" y="0" x="0" id="text-entity-PROTEINA-a6b4aa36-4bd1-5d4c-aab0-7168513002aa-attr-7-name" class="er entityLabel">pI</text><rect height="21" width="23.79498291015625" y="150" x="102.7752685546875" class="er attributeBoxOdd"></rect><text transform="translate(107.7752685546875,160.5)" style="dominant-baseline: middle; font-size: 10.2px;" y="0" x="0" id="text-entity-PROTEINA-a6b4aa36-4bd1-5d4c-aab0-7168513002aa-attr-7-key" class="er entityLabel"></text><rect height="21" width="35.245819091796875" y="171" x="0" class="er attributeBoxEven"></rect><text transform="translate(5,181.5)" style="dominant-baseline: middle; font-size: 10.2px;" y="0" x="0" id="text-entity-PROTEINA-a6b4aa36-4bd1-5d4c-aab0-7168513002aa-attr-8-type" class="er entityLabel">int</text><rect height="21" width="67.52944946289062" y="171" x="35.245819091796875" class="er attributeBoxEven"></rect><text transform="translate(40.245819091796875,181.5)" style="dominant-baseline: middle; font-size: 10.2px;" y="0" x="0" id="text-entity-PROTEINA-a6b4aa36-4bd1-5d4c-aab0-7168513002aa-attr-8-name" class="er entityLabel">nroAA</text><rect height="21" width="23.79498291015625" y="171" x="102.7752685546875" class="er attributeBoxEven"></rect><text transform="translate(107.7752685546875,181.5)" style="dominant-baseline: middle; font-size: 10.2px;" y="0" x="0" id="text-entity-PROTEINA-a6b4aa36-4bd1-5d4c-aab0-7168513002aa-attr-8-key" class="er entityLabel"></text><rect height="21" width="35.245819091796875" y="192" x="0" class="er attributeBoxOdd"></rect><text transform="translate(5,202.5)" style="dominant-baseline: middle; font-size: 10.2px;" y="0" x="0" id="text-entity-PROTEINA-a6b4aa36-4bd1-5d4c-aab0-7168513002aa-attr-9-type" class="er entityLabel">float</text><rect height="21" width="67.52944946289062" y="192" x="35.245819091796875" class="er attributeBoxOdd"></rect><text transform="translate(40.245819091796875,202.5)" style="dominant-baseline: middle; font-size: 10.2px;" y="0" x="0" id="text-entity-PROTEINA-a6b4aa36-4bd1-5d4c-aab0-7168513002aa-attr-9-name" class="er entityLabel">pesoMol</text><rect height="21" width="23.79498291015625" y="192" x="102.7752685546875" class="er attributeBoxOdd"></rect><text transform="translate(107.7752685546875,202.5)" style="dominant-baseline: middle; font-size: 10.2px;" y="0" x="0" id="text-entity-PROTEINA-a6b4aa36-4bd1-5d4c-aab0-7168513002aa-attr-9-key" class="er entityLabel"></text><rect height="21" width="35.245819091796875" y="213" x="0" class="er attributeBoxEven"></rect><text transform="translate(5,223.5)" style="dominant-baseline: middle; font-size: 10.2px;" y="0" x="0" id="text-entity-PROTEINA-a6b4aa36-4bd1-5d4c-aab0-7168513002aa-attr-10-type" class="er entityLabel">int</text><rect height="21" width="67.52944946289062" y="213" x="35.245819091796875" class="er attributeBoxEven"></rect><text transform="translate(40.245819091796875,223.5)" style="dominant-baseline: middle; font-size: 10.2px;" y="0" x="0" id="text-entity-PROTEINA-a6b4aa36-4bd1-5d4c-aab0-7168513002aa-attr-10-name" class="er entityLabel">residuosPos</text><rect height="21" width="23.79498291015625" y="213" x="102.7752685546875" class="er attributeBoxEven"></rect><text transform="translate(107.7752685546875,223.5)" style="dominant-baseline: middle; font-size: 10.2px;" y="0" x="0" id="text-entity-PROTEINA-a6b4aa36-4bd1-5d4c-aab0-7168513002aa-attr-10-key" class="er entityLabel"></text><rect height="21" width="35.245819091796875" y="234" x="0" class="er attributeBoxOdd"></rect><text transform="translate(5,244.5)" style="dominant-baseline: middle; font-size: 10.2px;" y="0" x="0" id="text-entity-PROTEINA-a6b4aa36-4bd1-5d4c-aab0-7168513002aa-attr-11-type" class="er entityLabel">int</text><rect height="21" width="67.52944946289062" y="234" x="35.245819091796875" class="er attributeBoxOdd"></rect><text transform="translate(40.245819091796875,244.5)" style="dominant-baseline: middle; font-size: 10.2px;" y="0" x="0" id="text-entity-PROTEINA-a6b4aa36-4bd1-5d4c-aab0-7168513002aa-attr-11-name" class="er entityLabel">residuosNeg</text><rect height="21" width="23.79498291015625" y="234" x="102.7752685546875" class="er attributeBoxOdd"></rect><text transform="translate(107.7752685546875,244.5)" style="dominant-baseline: middle; font-size: 10.2px;" y="0" x="0" id="text-entity-PROTEINA-a6b4aa36-4bd1-5d4c-aab0-7168513002aa-attr-11-key" class="er entityLabel"></text></g><g transform="translate(20,583 )" id="entity-ESPECIE-b50296cb-d3f6-5a4a-9a58-8ac1f01ce3ee"><rect height="87" width="120.57205200195312" y="0" x="0" class="er entityBox"></rect><text transform="translate(60.28602600097656,12)" style="dominant-baseline: middle; text-anchor: middle; font-size: 12px;" y="0" x="0" id="text-entity-ESPECIE-b50296cb-d3f6-5a4a-9a58-8ac1f01ce3ee" class="er entityLabel">ESPECIE</text><rect height="21" width="35.245819091796875" y="24" x="0" class="er attributeBoxOdd"></rect><text transform="translate(5,34.5)" style="dominant-baseline: middle; font-size: 10.2px;" y="0" x="0" id="text-entity-ESPECIE-b50296cb-d3f6-5a4a-9a58-8ac1f01ce3ee-attr-1-type" class="er entityLabel">string</text><rect height="21" width="61.53125" y="24" x="35.245819091796875" class="er attributeBoxOdd"></rect><text transform="translate(40.245819091796875,34.5)" style="dominant-baseline: middle; font-size: 10.2px;" y="0" x="0" id="text-entity-ESPECIE-b50296cb-d3f6-5a4a-9a58-8ac1f01ce3ee-attr-1-name" class="er entityLabel">taxId</text><rect height="21" width="23.79498291015625" y="24" x="96.77706909179688" class="er attributeBoxOdd"></rect><text transform="translate(101.77706909179688,34.5)" style="dominant-baseline: middle; font-size: 10.2px;" y="0" x="0" id="text-entity-ESPECIE-b50296cb-d3f6-5a4a-9a58-8ac1f01ce3ee-attr-1-key" class="er entityLabel">PK</text><rect height="21" width="35.245819091796875" y="45" x="0" class="er attributeBoxEven"></rect><text transform="translate(5,55.5)" style="dominant-baseline: middle; font-size: 10.2px;" y="0" x="0" id="text-entity-ESPECIE-b50296cb-d3f6-5a4a-9a58-8ac1f01ce3ee-attr-2-type" class="er entityLabel">string</text><rect height="21" width="61.53125" y="45" x="35.245819091796875" class="er attributeBoxEven"></rect><text transform="translate(40.245819091796875,55.5)" style="dominant-baseline: middle; font-size: 10.2px;" y="0" x="0" id="text-entity-ESPECIE-b50296cb-d3f6-5a4a-9a58-8ac1f01ce3ee-attr-2-name" class="er entityLabel">nombre</text><rect height="21" width="23.79498291015625" y="45" x="96.77706909179688" class="er attributeBoxEven"></rect><text transform="translate(101.77706909179688,55.5)" style="dominant-baseline: middle; font-size: 10.2px;" y="0" x="0" id="text-entity-ESPECIE-b50296cb-d3f6-5a4a-9a58-8ac1f01ce3ee-attr-2-key" class="er entityLabel"></text><rect height="21" width="35.245819091796875" y="66" x="0" class="er attributeBoxOdd"></rect><text transform="translate(5,76.5)" style="dominant-baseline: middle; font-size: 10.2px;" y="0" x="0" id="text-entity-ESPECIE-b50296cb-d3f6-5a4a-9a58-8ac1f01ce3ee-attr-3-type" class="er entityLabel">string</text><rect height="21" width="61.53125" y="66" x="35.245819091796875" class="er attributeBoxOdd"></rect><text transform="translate(40.245819091796875,76.5)" style="dominant-baseline: middle; font-size: 10.2px;" y="0" x="0" id="text-entity-ESPECIE-b50296cb-d3f6-5a4a-9a58-8ac1f01ce3ee-attr-3-name" class="er entityLabel">descripcion</text><rect height="21" width="23.79498291015625" y="66" x="96.77706909179688" class="er attributeBoxOdd"></rect><text transform="translate(101.77706909179688,76.5)" style="dominant-baseline: middle; font-size: 10.2px;" y="0" x="0" id="text-entity-ESPECIE-b50296cb-d3f6-5a4a-9a58-8ac1f01ce3ee-attr-3-key" class="er entityLabel"></text></g><g transform="translate(240.57205200195312,593.5 )" id="entity-GEN-2e6249a7-597f-54f2-8b4c-e6b4aac3a552"><rect height="66" width="115.24859619140625" y="0" x="0" class="er entityBox"></rect><text transform="translate(57.624298095703125,12)" style="dominant-baseline: middle; text-anchor: middle; font-size: 12px;" y="0" x="0" id="text-entity-GEN-2e6249a7-597f-54f2-8b4c-e6b4aac3a552" class="er entityLabel">GEN</text><rect height="21" width="35.245819091796875" y="24" x="0" class="er attributeBoxOdd"></rect><text transform="translate(5,34.5)" style="dominant-baseline: middle; font-size: 10.2px;" y="0" x="0" id="text-entity-GEN-2e6249a7-597f-54f2-8b4c-e6b4aac3a552-attr-1-type" class="er entityLabel">string</text><rect height="21" width="56.207794189453125" y="24" x="35.245819091796875" class="er attributeBoxOdd"></rect><text transform="translate(40.245819091796875,34.5)" style="dominant-baseline: middle; font-size: 10.2px;" y="0" x="0" id="text-entity-GEN-2e6249a7-597f-54f2-8b4c-e6b4aac3a552-attr-1-name" class="er entityLabel">nombre</text><rect height="21" width="23.79498291015625" y="24" x="91.45361328125" class="er attributeBoxOdd"></rect><text transform="translate(96.45361328125,34.5)" style="dominant-baseline: middle; font-size: 10.2px;" y="0" x="0" id="text-entity-GEN-2e6249a7-597f-54f2-8b4c-e6b4aac3a552-attr-1-key" class="er entityLabel">PK</text><rect height="21" width="35.245819091796875" y="45" x="0" class="er attributeBoxEven"></rect><text transform="translate(5,55.5)" style="dominant-baseline: middle; font-size: 10.2px;" y="0" x="0" id="text-entity-GEN-2e6249a7-597f-54f2-8b4c-e6b4aac3a552-attr-2-type" class="er entityLabel">string</text><rect height="21" width="56.207794189453125" y="45" x="35.245819091796875" class="er attributeBoxEven"></rect><text transform="translate(40.245819091796875,55.5)" style="dominant-baseline: middle; font-size: 10.2px;" y="0" x="0" id="text-entity-GEN-2e6249a7-597f-54f2-8b4c-e6b4aac3a552-attr-2-name" class="er entityLabel">idProteina</text><rect height="21" width="23.79498291015625" y="45" x="91.45361328125" class="er attributeBoxEven"></rect><text transform="translate(96.45361328125,55.5)" style="dominant-baseline: middle; font-size: 10.2px;" y="0" x="0" id="text-entity-GEN-2e6249a7-597f-54f2-8b4c-e6b4aac3a552-attr-2-key" class="er entityLabel">FK</text></g><g transform="translate(240.57205200195312,20 )" id="entity-SECUENCIA-8e0b8802-39ad-5ba6-bc60-e346272830f7"><rect height="108" width="115.24859619140625" y="0" x="0" class="er entityBox"></rect><text transform="translate(57.624298095703125,12)" style="dominant-baseline: middle; text-anchor: middle; font-size: 12px;" y="0" x="0" id="text-entity-SECUENCIA-8e0b8802-39ad-5ba6-bc60-e346272830f7" class="er entityLabel">SECUENCIA</text><rect height="21" width="35.245819091796875" y="24" x="0" class="er attributeBoxOdd"></rect><text transform="translate(5,34.5)" style="dominant-baseline: middle; font-size: 10.2px;" y="0" x="0" id="text-entity-SECUENCIA-8e0b8802-39ad-5ba6-bc60-e346272830f7-attr-1-type" class="er entityLabel">int</text><rect height="21" width="56.207794189453125" y="24" x="35.245819091796875" class="er attributeBoxOdd"></rect><text transform="translate(40.245819091796875,34.5)" style="dominant-baseline: middle; font-size: 10.2px;" y="0" x="0" id="text-entity-SECUENCIA-8e0b8802-39ad-5ba6-bc60-e346272830f7-attr-1-name" class="er entityLabel">id</text><rect height="21" width="23.79498291015625" y="24" x="91.45361328125" class="er attributeBoxOdd"></rect><text transform="translate(96.45361328125,34.5)" style="dominant-baseline: middle; font-size: 10.2px;" y="0" x="0" id="text-entity-SECUENCIA-8e0b8802-39ad-5ba6-bc60-e346272830f7-attr-1-key" class="er entityLabel">PK</text><rect height="21" width="35.245819091796875" y="45" x="0" class="er attributeBoxEven"></rect><text transform="translate(5,55.5)" style="dominant-baseline: middle; font-size: 10.2px;" y="0" x="0" id="text-entity-SECUENCIA-8e0b8802-39ad-5ba6-bc60-e346272830f7-attr-2-type" class="er entityLabel">string</text><rect height="21" width="56.207794189453125" y="45" x="35.245819091796875" class="er attributeBoxEven"></rect><text transform="translate(40.245819091796875,55.5)" style="dominant-baseline: middle; font-size: 10.2px;" y="0" x="0" id="text-entity-SECUENCIA-8e0b8802-39ad-5ba6-bc60-e346272830f7-attr-2-name" class="er entityLabel">secuencia</text><rect height="21" width="23.79498291015625" y="45" x="91.45361328125" class="er attributeBoxEven"></rect><text transform="translate(96.45361328125,55.5)" style="dominant-baseline: middle; font-size: 10.2px;" y="0" x="0" id="text-entity-SECUENCIA-8e0b8802-39ad-5ba6-bc60-e346272830f7-attr-2-key" class="er entityLabel"></text><rect height="21" width="35.245819091796875" y="66" x="0" class="er attributeBoxOdd"></rect><text transform="translate(5,76.5)" style="dominant-baseline: middle; font-size: 10.2px;" y="0" x="0" id="text-entity-SECUENCIA-8e0b8802-39ad-5ba6-bc60-e346272830f7-attr-3-type" class="er entityLabel">string</text><rect height="21" width="56.207794189453125" y="66" x="35.245819091796875" class="er attributeBoxOdd"></rect><text transform="translate(40.245819091796875,76.5)" style="dominant-baseline: middle; font-size: 10.2px;" y="0" x="0" id="text-entity-SECUENCIA-8e0b8802-39ad-5ba6-bc60-e346272830f7-attr-3-name" class="er entityLabel">idProteina</text><rect height="21" width="23.79498291015625" y="66" x="91.45361328125" class="er attributeBoxOdd"></rect><text transform="translate(96.45361328125,76.5)" style="dominant-baseline: middle; font-size: 10.2px;" y="0" x="0" id="text-entity-SECUENCIA-8e0b8802-39ad-5ba6-bc60-e346272830f7-attr-3-key" class="er entityLabel">FK</text><rect height="21" width="35.245819091796875" y="87" x="0" class="er attributeBoxEven"></rect><text transform="translate(5,97.5)" style="dominant-baseline: middle; font-size: 10.2px;" y="0" x="0" id="text-entity-SECUENCIA-8e0b8802-39ad-5ba6-bc60-e346272830f7-attr-4-type" class="er entityLabel">int</text><rect height="21" width="56.207794189453125" y="87" x="35.245819091796875" class="er attributeBoxEven"></rect><text transform="translate(40.245819091796875,97.5)" style="dominant-baseline: middle; font-size: 10.2px;" y="0" x="0" id="text-entity-SECUENCIA-8e0b8802-39ad-5ba6-bc60-e346272830f7-attr-4-name" class="er entityLabel">largo</text><rect height="21" width="23.79498291015625" y="87" x="91.45361328125" class="er attributeBoxEven"></rect><text transform="translate(96.45361328125,97.5)" style="dominant-baseline: middle; font-size: 10.2px;" y="0" x="0" id="text-entity-SECUENCIA-8e0b8802-39ad-5ba6-bc60-e346272830f7-attr-4-key" class="er entityLabel"></text></g><g transform="translate(455.8206481933594,583 )" id="entity-REFERENCIA-7c928d8e-6167-54a4-b04e-19bf0319535b"><rect height="87" width="107.34375" y="0" x="0" class="er entityBox"></rect><text transform="translate(53.671875,12)" style="dominant-baseline: middle; text-anchor: middle; font-size: 12px;" y="0" x="0" id="text-entity-REFERENCIA-7c928d8e-6167-54a4-b04e-19bf0319535b" class="er entityLabel">REFERENCIA</text><rect height="21" width="40.029459635416664" y="24" x="0" class="er attributeBoxOdd"></rect><text transform="translate(5,34.5)" style="dominant-baseline: middle; font-size: 10.2px;" y="0" x="0" id="text-entity-REFERENCIA-7c928d8e-6167-54a4-b04e-19bf0319535b-attr-1-type" class="er entityLabel">int</text><rect height="21" width="38.73566691080729" y="24" x="40.029459635416664" class="er attributeBoxOdd"></rect><text transform="translate(45.029459635416664,34.5)" style="dominant-baseline: middle; font-size: 10.2px;" y="0" x="0" id="text-entity-REFERENCIA-7c928d8e-6167-54a4-b04e-19bf0319535b-attr-1-name" class="er entityLabel">idRef</text><rect height="21" width="28.578623453776043" y="24" x="78.76512654622395" class="er attributeBoxOdd"></rect><text transform="translate(83.76512654622395,34.5)" style="dominant-baseline: middle; font-size: 10.2px;" y="0" x="0" id="text-entity-REFERENCIA-7c928d8e-6167-54a4-b04e-19bf0319535b-attr-1-key" class="er entityLabel">PK</text><rect height="21" width="40.029459635416664" y="45" x="0" class="er attributeBoxEven"></rect><text transform="translate(5,55.5)" style="dominant-baseline: middle; font-size: 10.2px;" y="0" x="0" id="text-entity-REFERENCIA-7c928d8e-6167-54a4-b04e-19bf0319535b-attr-2-type" class="er entityLabel">string</text><rect height="21" width="38.73566691080729" y="45" x="40.029459635416664" class="er attributeBoxEven"></rect><text transform="translate(45.029459635416664,55.5)" style="dominant-baseline: middle; font-size: 10.2px;" y="0" x="0" id="text-entity-REFERENCIA-7c928d8e-6167-54a4-b04e-19bf0319535b-attr-2-name" class="er entityLabel">titulo</text><rect height="21" width="28.578623453776043" y="45" x="78.76512654622395" class="er attributeBoxEven"></rect><text transform="translate(83.76512654622395,55.5)" style="dominant-baseline: middle; font-size: 10.2px;" y="0" x="0" id="text-entity-REFERENCIA-7c928d8e-6167-54a4-b04e-19bf0319535b-attr-2-key" class="er entityLabel"></text><rect height="21" width="40.029459635416664" y="66" x="0" class="er attributeBoxOdd"></rect><text transform="translate(5,76.5)" style="dominant-baseline: middle; font-size: 10.2px;" y="0" x="0" id="text-entity-REFERENCIA-7c928d8e-6167-54a4-b04e-19bf0319535b-attr-3-type" class="er entityLabel">int</text><rect height="21" width="38.73566691080729" y="66" x="40.029459635416664" class="er attributeBoxOdd"></rect><text transform="translate(45.029459635416664,76.5)" style="dominant-baseline: middle; font-size: 10.2px;" y="0" x="0" id="text-entity-REFERENCIA-7c928d8e-6167-54a4-b04e-19bf0319535b-attr-3-name" class="er entityLabel">anio</text><rect height="21" width="28.578623453776043" y="66" x="78.76512654622395" class="er attributeBoxOdd"></rect><text transform="translate(83.76512654622395,76.5)" style="dominant-baseline: middle; font-size: 10.2px;" y="0" x="0" id="text-entity-REFERENCIA-7c928d8e-6167-54a4-b04e-19bf0319535b-attr-3-key" class="er entityLabel"></text></g><g transform="translate(457.5340270996094,770 )" id="entity-AUTOR-e9949443-e31f-5c7f-9a9b-86c3df20db93"><rect height="66" width="103.9169921875" y="0" x="0" class="er entityBox"></rect><text transform="translate(51.95849609375,12)" style="dominant-baseline: middle; text-anchor: middle; font-size: 12px;" y="0" x="0" id="text-entity-AUTOR-e9949443-e31f-5c7f-9a9b-86c3df20db93" class="er entityLabel">AUTOR</text><rect height="21" width="35.245819091796875" y="24" x="0" class="er attributeBoxOdd"></rect><text transform="translate(5,34.5)" style="dominant-baseline: middle; font-size: 10.2px;" y="0" x="0" id="text-entity-AUTOR-e9949443-e31f-5c7f-9a9b-86c3df20db93-attr-1-type" class="er entityLabel">int</text><rect height="21" width="44.876190185546875" y="24" x="35.245819091796875" class="er attributeBoxOdd"></rect><text transform="translate(40.245819091796875,34.5)" style="dominant-baseline: middle; font-size: 10.2px;" y="0" x="0" id="text-entity-AUTOR-e9949443-e31f-5c7f-9a9b-86c3df20db93-attr-1-name" class="er entityLabel">idAutor</text><rect height="21" width="23.79498291015625" y="24" x="80.12200927734375" class="er attributeBoxOdd"></rect><text transform="translate(85.12200927734375,34.5)" style="dominant-baseline: middle; font-size: 10.2px;" y="0" x="0" id="text-entity-AUTOR-e9949443-e31f-5c7f-9a9b-86c3df20db93-attr-1-key" class="er entityLabel">PK</text><rect height="21" width="35.245819091796875" y="45" x="0" class="er attributeBoxEven"></rect><text transform="translate(5,55.5)" style="dominant-baseline: middle; font-size: 10.2px;" y="0" x="0" id="text-entity-AUTOR-e9949443-e31f-5c7f-9a9b-86c3df20db93-attr-2-type" class="er entityLabel">string</text><rect height="21" width="44.876190185546875" y="45" x="35.245819091796875" class="er attributeBoxEven"></rect><text transform="translate(40.245819091796875,55.5)" style="dominant-baseline: middle; font-size: 10.2px;" y="0" x="0" id="text-entity-AUTOR-e9949443-e31f-5c7f-9a9b-86c3df20db93-attr-2-name" class="er entityLabel">nombre</text><rect height="21" width="23.79498291015625" y="45" x="80.12200927734375" class="er attributeBoxEven"></rect><text transform="translate(85.12200927734375,55.5)" style="dominant-baseline: middle; font-size: 10.2px;" y="0" x="0" id="text-entity-AUTOR-e9949443-e31f-5c7f-9a9b-86c3df20db93-attr-2-key" class="er entityLabel"></text></g><rect height="14" width="67.046875" y="477.608642578125" x="108.76756286621094" class="er relationshipLabelBox"></rect><text style="text-anchor: middle; dominant-baseline: middle; font-size: 12px;" y="484.608642578125" x="142.29100036621094" id="rel1095" class="er relationshipLabel">pertenece_a</text><rect height="14" width="78.0625" y="531.25" x="259.1647644042969" class="er relationshipLabelBox"></rect><text style="text-anchor: middle; dominant-baseline: middle; font-size: 12px;" y="538.25" x="298.1960144042969" id="rel1096" class="er relationshipLabel">codificada_por</text><rect height="14" width="26.34765625" y="171" x="285.0221862792969" class="er relationshipLabelBox"></rect><text style="text-anchor: middle; dominant-baseline: middle; font-size: 12px;" y="178" x="298.1960144042969" id="rel1097" class="er relationshipLabel">tiene</text><rect height="14" width="90.734375" y="478.7652893066406" x="405.3193664550781" class="er relationshipLabelBox"></rect><text style="text-anchor: middle; dominant-baseline: middle; font-size: 12px;" y="485.7652893066406" x="450.6865539550781" id="rel1098" class="er relationshipLabel">referenciada_por</text><rect height="14" width="59.375" y="713" x="479.8055114746094" class="er relationshipLabelBox"></rect><text style="text-anchor: middle; dominant-baseline: middle; font-size: 12px;" y="720" x="509.4930114746094" id="rel1099" class="er relationshipLabel">escrita_por</text></svg>